HIERARCHY
ROOT Hips
{
	OFFSET -14.64140 90.27770 -84.91600
	CHANNELS 6 Xposition Yposition Zposition Zrotation Xrotation Yrotation
	JOINT Spine
	{
		OFFSET 0.00000 13.20850 -1.60436
		CHANNELS 3 Zrotation Xrotation Yrotation
		JOINT Spine1
		{
			OFFSET 0.00000 8.61716 0.00000
			CHANNELS 3 Zrotation Xrotation Yrotation
			JOINT Spine2
			{
				OFFSET 0.00000 8.61717 0.00000
				CHANNELS 3 Zrotation Xrotation Yrotation
				JOINT Spine3
				{
					OFFSET 0.00000 8.61717 0.00000
					CHANNELS 3 Zrotation Xrotation Yrotation
					JOINT Neck
					{
						OFFSET 0.00000 11.07920 1.10792
						CHANNELS 3 Zrotation Xrotation Yrotation
						JOINT Neck1
						{
							OFFSET 0.00000 7.08032 0.00000
							CHANNELS 3 Zrotation Xrotation Yrotation
							JOINT Head
							{
								OFFSET 0.00000 7.08031 0.00000
								CHANNELS 3 Zrotation Xrotation Yrotation
								End site
								{
									OFFSET 0.00000 0.00000 0.00000
								}
							}
						}
					}
					JOINT RightShoulder
					{
						OFFSET -0.01000 7.91373 5.19711
						CHANNELS 3 Zrotation Xrotation Yrotation
						JOINT RightArm
						{
							OFFSET -18.41580 0.00000 0.00000
							CHANNELS 3 Zrotation Xrotation Yrotation
							JOINT RightForeArm
							{
								OFFSET -29.11090 0.00000 0.00000
								CHANNELS 3 Zrotation Xrotation Yrotation
								JOINT RightHand
								{
									OFFSET -24.65040 0.00000 0.00000
									CHANNELS 3 Zrotation Xrotation Yrotation
									JOINT RightHandThumb1
									{
										OFFSET -5.35114 -0.85590 3.97906
										CHANNELS 3 Zrotation Xrotation Yrotation
										JOINT RightHandThumb2
										{
											OFFSET -4.52789 0.00000 0.00000
											CHANNELS 3 Zrotation Xrotation Yrotation
											JOINT RightHandThumb3
											{
												OFFSET -2.46976 0.00000 0.00000
												CHANNELS 3 Zrotation Xrotation Yrotation
												End site
												{
													OFFSET 0.00000 0.00000 0.00000
												}
											}
										}
									}
									JOINT RightHandIndex1
									{
										OFFSET -14.26970 0.00000 2.88139
										CHANNELS 3 Zrotation Xrotation Yrotation
										JOINT RightHandIndex2
										{
											OFFSET -5.48836 0.00000 0.00000
											CHANNELS 3 Zrotation Xrotation Yrotation
											JOINT RightHandIndex3
											{
												OFFSET -3.01859 0.00000 0.00000
												CHANNELS 3 Zrotation Xrotation Yrotation
												End site
												{
													OFFSET 0.00000 0.00000 0.00000
												}
											}
										}
									}
									JOINT RightHandMiddle1
									{
										OFFSET -14.26970 0.00000 -0.09147
										CHANNELS 3 Zrotation Xrotation Yrotation
										JOINT RightHandMiddle2
										{
											OFFSET -6.17441 0.00000 0.00000
											CHANNELS 3 Zrotation Xrotation Yrotation
											JOINT RightHandMiddle3
											{
												OFFSET -3.56743 0.00000 0.00000
												CHANNELS 3 Zrotation Xrotation Yrotation
												End site
												{
													OFFSET 0.00000 0.00000 0.00000
												}
											}
										}
									}
									JOINT RightHandRing1
									{
										OFFSET -12.69180 0.00000 -3.06433
										CHANNELS 3 Zrotation Xrotation Yrotation
										JOINT RightHandRing2
										{
											OFFSET -5.62556 0.00000 0.00000
											CHANNELS 3 Zrotation Xrotation Yrotation
											JOINT RightHandRing3
											{
												OFFSET -3.56744 0.00000 0.00000
												CHANNELS 3 Zrotation Xrotation Yrotation
												End site
												{
													OFFSET 0.00000 0.00000 0.00000
												}
											}
										}
									}
									JOINT RightHandPinky1
									{
										OFFSET -11.11390 0.00000 -6.03719
										CHANNELS 3 Zrotation Xrotation Yrotation
										JOINT RightHandPinky2
										{
											OFFSET -4.52789 0.00000 0.00000
											CHANNELS 3 Zrotation Xrotation Yrotation
											JOINT RightHandPinky3
											{
												OFFSET -2.46976 0.00000 0.00000
												CHANNELS 3 Zrotation Xrotation Yrotation
												End site
												{
													OFFSET 0.00000 0.00000 0.00000
												}
											}
										}
									}
								}
							}
						}
					}
					JOINT LeftShoulder
					{
						OFFSET 0.01000 7.91373 5.19711
						CHANNELS 3 Zrotation Xrotation Yrotation
						JOINT LeftArm
						{
							OFFSET 18.41580 0.00000 0.00000
							CHANNELS 3 Zrotation Xrotation Yrotation
							JOINT LeftForeArm
							{
								OFFSET 29.11090 0.00000 0.00000
								CHANNELS 3 Zrotation Xrotation Yrotation
								JOINT LeftHand
								{
									OFFSET 24.65040 0.00000 0.00000
									CHANNELS 3 Zrotation Xrotation Yrotation
									JOINT LeftHandThumb1
									{
										OFFSET 5.35114 -0.85590 3.97906
										CHANNELS 3 Zrotation Xrotation Yrotation
										JOINT LeftHandThumb2
										{
											OFFSET 4.52789 0.00000 0.00000
											CHANNELS 3 Zrotation Xrotation Yrotation
											JOINT LeftHandThumb3
											{
												OFFSET 2.46977 0.00000 0.00000
												CHANNELS 3 Zrotation Xrotation Yrotation
												End site
												{
													OFFSET 0.00000 0.00000 0.00000
												}
											}
										}
									}
									JOINT LeftHandIndex1
									{
										OFFSET 14.26970 0.00000 2.88139
										CHANNELS 3 Zrotation Xrotation Yrotation
										JOINT LeftHandIndex2
										{
											OFFSET 5.48836 0.00000 0.00000
											CHANNELS 3 Zrotation Xrotation Yrotation
											JOINT LeftHandIndex3
											{
												OFFSET 3.01859 0.00000 0.00000
												CHANNELS 3 Zrotation Xrotation Yrotation
												End site
												{
													OFFSET 0.00000 0.00000 0.00000
												}
											}
										}
									}
									JOINT LeftHandMiddle1
									{
										OFFSET 14.26970 0.00000 -0.09147
										CHANNELS 3 Zrotation Xrotation Yrotation
										JOINT LeftHandMiddle2
										{
											OFFSET 6.17440 0.00000 0.00000
											CHANNELS 3 Zrotation Xrotation Yrotation
											JOINT LeftHandMiddle3
											{
												OFFSET 3.56744 0.00000 0.00000
												CHANNELS 3 Zrotation Xrotation Yrotation
												End site
												{
													OFFSET 0.00000 0.00000 0.00000
												}
											}
										}
									}
									JOINT LeftHandRing1
									{
										OFFSET 12.69180 0.00000 -3.06433
										CHANNELS 3 Zrotation Xrotation Yrotation
										JOINT LeftHandRing2
										{
											OFFSET 5.62556 0.00000 0.00000
											CHANNELS 3 Zrotation Xrotation Yrotation
											JOINT LeftHandRing3
											{
												OFFSET 3.56744 0.00000 0.00000
												CHANNELS 3 Zrotation Xrotation Yrotation
												End site
												{
													OFFSET 0.00000 0.00000 0.00000
												}
											}
										}
									}
									JOINT LeftHandPinky1
									{
										OFFSET 11.11390 0.00000 -6.03719
										CHANNELS 3 Zrotation Xrotation Yrotation
										JOINT LeftHandPinky2
										{
											OFFSET 4.52789 0.00000 0.00000
											CHANNELS 3 Zrotation Xrotation Yrotation
											JOINT LeftHandPinky3
											{
												OFFSET 2.46976 0.00000 0.00000
												CHANNELS 3 Zrotation Xrotation Yrotation
												End site
												{
													OFFSET 0.00000 0.00000 0.00000
												}
											}
										}
									}
								}
							}
						}
					}
					JOINT pCube4
					{
						OFFSET 0.00000 10.91090 1.10792
						CHANNELS 3 Zrotation Xrotation Yrotation
						End site
						{
							OFFSET 0.00000 0.00000 0.00000
						}
					}
				}
			}
		}
	}
	JOINT RightUpLeg
	{
		OFFSET -9.98441 0.00000 0.00000
		CHANNELS 3 Zrotation Xrotation Yrotation
		JOINT RightLeg
		{
			OFFSET 0.00000 -42.11790 0.00000
			CHANNELS 3 Zrotation Xrotation Yrotation
			JOINT RightFoot
			{
				OFFSET 0.00000 -45.00020 -0.00001
				CHANNELS 3 Zrotation Xrotation Yrotation
				JOINT RightForeFoot
				{
					OFFSET 0.00000 -3.74820 0.00000
					CHANNELS 3 Zrotation Xrotation Yrotation
					JOINT RightToeBase
					{
						OFFSET 0.00000 0.06325 14.43120
						CHANNELS 3 Zrotation Xrotation Yrotation
						End site
						{
							OFFSET 0.00000 0.00000 0.00000
						}
					}
				}
			}
		}
	}
	JOINT LeftUpLeg
	{
		OFFSET 9.98441 0.00000 0.00000
		CHANNELS 3 Zrotation Xrotation Yrotation
		JOINT LeftLeg
		{
			OFFSET 0.00000 -42.11800 0.00000
			CHANNELS 3 Zrotation Xrotation Yrotation
			JOINT LeftFoot
			{
				OFFSET 0.00000 -45.00070 0.00000
				CHANNELS 3 Zrotation Xrotation Yrotation
				JOINT LeftForeFoot
				{
					OFFSET 0.00000 -3.74824 0.00000
					CHANNELS 3 Zrotation Xrotation Yrotation
					JOINT LeftToeBase
					{
						OFFSET 0.00000 0.06325 14.43110
						CHANNELS 3 Zrotation Xrotation Yrotation
						End site
						{
							OFFSET 0.00000 0.00000 0.00000
						}
					}
				}
			}
		}
	}
}
MOTION
Frames: 4
Frame Time: 0.050000
0.018512857452092205 0.037489959222531025 -0.031546441168740585 -0.026711284315434725 0.0038016712673657875 0.03497498691363338 -1.5575310899855312 1.8049452537697852 -0.9135978406194143 -0.927414293448949 3.8950106231142945 0.41194777584224285 -1.0551893004773694 -1.2727729022534016 -0.641530204927934 0.728806455215935 0.4591639751291827 -0.7464877844826874 0.057544251538809536 11.714515862154718 -1.0693887712490557 0.11850981074504235 -1.073220993816363 -4.344722620850273 0.6477293013582159 -16.608264320122988 -0.3365850852554843 -2.0469772991440824 0.9394252147381186 -15.209948383725274 74.76484983197979 26.088258195539275 1.1338259665182953 11.645175931232993 2.2339089750527927 47.081880281533955 21.450894000823176 0.09263037151123854 -4.946657427051132 4.4915045876488655 -0.1129395982453452 -1.6270060763872016 -0.04202942103068205 0.04783661992791508 -56.23469361588257 0.02128715704405534 0.018123762168284315 -56.255364453042304 -38.78294476177095 -0.02706492255420383 0.0020673372979458336 0.011741145771479403 -0.0217665038830662 0.020952749501542564 -0.027598118660343018 -0.04852797576254646 -0.002173060092610087 -36.71525901167116 -0.039202674922957814 -0.031440066787184785 -0.03314680280720376 -0.029673197142312233 0.0030584862996389153 0.015085507714859432 0.01598936354778685 -0.03435992815509347 -19.766896476813038 -0.0035810158998130894 -0.029214249480259906 -0.023561670480227132 0.022942748532016922 -0.01600162930383168 0.03885577192412632 -0.02846891368753137 -0.02234188171659176 24.047560741114463 0.02097385938734042 -0.019558940425893068 28.869868922631643 -0.010153690535479055 -0.019139645402110776 28.897049574426095 0.009813557198752324 0.04550694250548772 3.5752080657475744 1.0472172027897777 13.756326393884331 -69.94790097284336 34.71923859954179 -6.623456121840777 -4.085627279944512 -3.2515990014087848 -95.51237616372745 -14.558349186697745 -4.748851391112536 2.928414592101832 -0.49077923647786265 0.03943783364085984 -8.164686799238792 -0.04313612709570019 0.033044262065362 44.608497662693566 0.030790654955546035 0.02390239571553453 44.561065910750756 12.474702796165827 0.04609310867939616 0.02851500787521778 0.012874079281979707 0.03878155237834221 0.029339749397110235 0.04795734006670137 -0.0031971177565445668 0.010036614405215256 11.065304270145289 -0.04347655818642897 0.01094933922265056 0.018957543584542904 0.007581218415874648 0.02032347406669325 0.047552993227491534 0.009521656829699373 -0.042547145096606655 4.784887426813922 0.00018725636439196857 0.0037982470731128884 -0.016136717997811 -0.0017221264052162395 -0.02463880223879612 -0.007177295699510398 0.039466573809533396 0.016866520274495228 -5.624560147783722 0.02698194287677546 -0.03249557833626144 -6.705170406018647 0.0008713048429766189 -0.024876768630154956 -6.691874817631705 0.03754678525651481 -0.02501882999193414 -0.03174378452885609 0.04015797203726183 -0.0028848509525036922 8.032266073289614 3.4944498840818654 -19.239711702218358 0.03671458870814432 10.366193753074956 0.04466076910212824 -5.588208529260745 -15.646969451346193 3.157317392888575 0.0417861729824217 0.02310553848231312 0.009074727183237308 -0.002923360445214453 4.691612593409101 0.036028976967497 12.453669843385637 -8.20141106325695 6.870651295040156 0.009032774580315001 46.39010031512653 0.0413175825629609 -4.359392599615188 -14.70390803947876 -3.794829446760213 -0.01956682387255525 -0.0027126156448776303 0.024064470295527336 0.03155280553320659 -10.725604229400892 0.02928478829126332 
-0.04988481342000661 0.030271217673024483 -0.04631129943811285 -0.010038668706009045 -0.03313275563789277 -0.01106316153861462 -1.4317520290187133 1.6105121197255046 -0.9587226605354476 -0.9587073283784527 3.8820351174349996 0.3832331868247908 -1.0915956551568116 -1.3348006375661665 -0.7025511866544791 0.7044917230474786 0.42733416500437227 -0.7768760555790583 0.1466357476035079 11.733286642108656 -1.3378434547406608 0.2064564596475616 -0.9378672879925428 -4.7806163965062245 0.7766896195604828 -16.411826217905 -0.42350728100416885 -2.2817676146785746 0.9875735726111837 -15.246102982060105 75.02892546609783 25.949308100546617 0.7527801083789999 12.326281090301059 2.764696155294035 46.83398219844464 21.793429764741383 0.057877186057175435 -4.901229613930764 4.551728826322734 -0.16523440411929852 -1.5689465187849552 0.027890930001003296 -0.049633452609540066 -56.254553569499144 -0.023693096277638968 0.03253585122029085 -56.19068118251091 -38.79496039858317 -0.026472190582066235 0.038080584551106765 -0.031653411659748706 0.04071093676739964 0.02664772124444584 0.018648160731716826 -0.03884574041286582 -0.0076700027717793925 -36.718052546074524 -0.002030152874114225 -0.022551075009441906 -0.03397220529273686 0.04331976410923684 0.027743977910714757 -0.03241034641552363 0.04529144004483054 -0.013669759828863542 -19.728616046684014 -0.04272780219067029 -0.04895429152135359 0.00976034390616191 -0.04137920258762417 -0.008502849684718752 -0.04445711094899054 0.028964015858597255 0.026138298836224167 24.044138485196704 0.020454452772396655 -0.0030062303294857685 28.857650369357028 -0.040692716543791745 -0.044446127722417454 28.881372172339688 -0.02559473599796711 -0.029042594683224475 3.574403770145608 1.0733263097966983 13.727591268701142 -70.37026314123742 35.37271251994244 -5.556594771601634 -3.670843712209461 -4.077803290697183 -96.29070501898775 -14.428454662960709 -4.951947254012094 2.6475813280559963 -0.45316300972511453 0.021132808189020066 -8.133044130106128 0.011055737513093328 -0.000473307720810093 44.59657029513476 0.04758094714041821 -0.044576123356825266 44.556582566812246 12.452513735778174 0.04983035461161853 -0.0018607686732412805 0.029164763918148002 0.015696723025000556 -0.007830619291128271 -0.019018128095963562 0.03662510242239879 -0.0388259655191988 11.097023636852274 0.0063962605618891775 0.018687187172744958 0.03827570980470012 -0.012726420756509397 0.018094410132123814 0.032597474933737346 0.0031357247099541713 -0.01793354692814693 4.739558696744088 0.005448411457327214 -0.00961059638350975 -0.01701108583447538 -0.03275712939072029 0.004772453153305261 -0.007241310402857469 0.015549267655734987 -0.013257704827136766 -5.607945618212404 -0.012612826624699145 0.0037543301104400193 -6.702070869934913 -0.015860982150363696 -0.03671785201053234 -6.764798560696075 0.03945321058708386 -0.023144227869217132 0.028422008985801602 -0.017963210135720574 0.04245545291670198 8.069161565220876 3.4772335117812183 -19.179971965100222 0.014746261981826953 10.429535257754166 0.03305757125358827 -5.61712897297391 -15.693960448154618 3.1605861200567635 0.0030850879848968366 -0.009535014802163736 0.025825890156183695 -0.024354597509804708 4.723453778182324 -0.03189526197391564 12.479649205317248 -8.254671520612845 6.837177852825051 0.011842257615319754 46.384559021925305 0.003779550104347984 -4.322544514608591 -14.742542221618233 -3.8528518258419266 0.008653102100973928 0.00966345952766317 0.02844647444973919 0.020800111786953037 -10.773020994198557 0.026404119202315224 
-0.023313428957653176 0.026502437614147445 -0.02645791381417985 -0.021169882783265707 0.028280761829066366 0.04532691565842299 -1.3258101635172794 1.4287529687461937 -0.9365570981128867 -0.9387160617150216 3.8559681191836006 0.33872565197734356 -1.053664117379516 -1.4391897850604696 -0.7403109168002583 0.7329586088542326 0.41575609633697796 -0.8119709029011603 0.2254281014692788 11.808819171667892 -1.3704501259974544 0.2001181348580097 -0.8455471539321928 -4.890289481070881 0.76785678126536 -16.319187740241155 -0.4054817828344039 -2.3866713950791163 1.0411698737723705 -15.26877823061338 75.30072570614216 25.980057151243773 0.18707789836603722 12.900572313111148 3.3681809012243784 46.52411286117173 22.09612131972649 0.027062893272775765 -4.9358478337808345 4.546207242991137 -0.17579394342879323 -1.554171584539751 0.03395864648824576 -0.0030051646467505544 -56.24398824830382 0.012478283931965142 -0.019481865445884684 -56.28209230126512 -38.75621897788562 0.0020145364369289482 0.04330257727613681 0.011637475497331955 -0.039371438242509646 -0.031023293086431536 0.03782155741305426 0.0007447812247917593 0.018364223950719707 -36.660208743430886 0.01348602963449181 0.0012289208923685951 -0.011979193711197116 0.008186929592313461 -0.0400933003937897 -0.009275593052945275 -0.01591387019201585 -0.023403865760143062 -19.78168727075343 -0.0019701795899552473 0.02749913120385165 -0.03359913527212844 0.02064938381425383 0.0429108591108497 -0.024644156228235223 -0.0047561691080345225 0.026475237406453363 24.037136116913235 0.03917289913234995 0.03300724083043066 28.848022935567663 0.045897914385172246 -0.031314798930738304 28.84762518799403 -0.03203784759507326 -0.018396768682459486 3.6445946903390136 1.0954469227293822 13.750191676397021 -70.75779695663458 35.82818152173255 -4.792298450882144 -3.6898314495725963 -4.705253298968595 -96.81001045522505 -14.083587312328595 -4.843551145669261 2.1214054265743263 -0.5000693840978752 0.05291596573126023 -8.091340409806659 0.006340418181427331 0.0359367427402151 44.57308535290507 0.021284437827738676 0.029748144763978097 44.57426997936161 12.49186566985447 -0.02778826437781448 -0.04125635774417965 0.0494491399019337 0.030179500579813324 -0.03188249478221135 -0.018811548978104 -0.02206108922331005 -0.023242198825084583 11.150560562571123 0.0063007180881046185 0.04474741437921693 -0.005641965176597554 -0.03744696479140138 -0.009496607690024224 0.021702799985525666 0.037856248418655127 -0.030290671765394413 4.763777519597603 -0.005990017294498317 0.035237607630600035 -0.01855168187177742 0.03995346865086427 0.03791477984150279 0.03598624343740732 -0.0021274690761828086 -0.0011590734703086692 -5.618431900357154 -0.029579245983077544 -0.00838604329236623 -6.7209155723626814 0.01689126300497819 -0.032474074332016295 -6.744639066632742 0.008963383029634472 0.02568828660258944 0.01046084649239226 0.013977770029680193 -0.003234817577133841 8.08012213133842 3.5265092913429057 -19.209592766205688 0.028922900950425826 10.367853121866746 0.028353087792170013 -5.623837080796257 -15.670868581711714 3.190987387193561 -0.038663585793125406 -0.012038191328612552 -0.045510923203177095 0.008717777308198301 4.678987602303089 -0.017915480301054873 12.499865340234786 -8.191658591434994 6.909913240639942 -0.03565811688922607 46.40223122941937 0.029041042768641088 -4.347959522562075 -14.74251851910397 -3.880179500889208 0.02983895468958134 0.033504976431103485 0.008815505296669203 -0.037813481475619755 -10.727221580583704 -0.019656981927592375 
0.01122856576814041 -0.01821738522459268 0.04463086019440961 0.0025294634550192944 -0.03225868017965879 -0.03385646454622066 -1.3203816225608693 1.3102444593255802 -0.9308689455212449 -0.8995313918791464 3.8266120924782334 0.32120701367447785 -1.1009370080482552 -1.5226825164286582 -0.7568805942578106 0.6753756094046272 0.4612349664208838 -0.827777246566521 0.19024523265291327 11.92521007872773 -1.3446503561251981 0.26739066358981395 -0.7122077358136732 -4.617233497435728 0.838621743992453 -15.989286887502407 -0.4052631593527401 -2.519875835057491 1.0419124551011951 -15.365895817266365 75.51578761618079 26.125142036595264 -0.1839655504789004 13.509486650461856 3.716995746108924 46.367561710408566 22.268975111980424 0.06127652652424508 -4.925108963240828 4.510572765905925 -0.1375247228312871 -1.640496830219196 -0.030459342335080773 0.030975016235195958 -56.26629849727027 -0.023097799032726712 0.03117653663340471 -56.21807506369612 -38.7946877222579 -0.04680864228875799 -0.0059209312523450545 0.043292856009142 -0.03397648472592182 -0.0030629850222888165 0.03691921707673381 0.016229436730568716 0.0036327155540606215 -36.74047975529759 0.02561952431733777 0.02370430391828033 0.04977892124778581 -0.016503901479305562 -0.00986281357826459 0.010755850344878524 -0.03658794786112161 -0.0495324863173033 -19.774919514949726 0.04755959357872557 0.03398020824636255 0.019509714390340646 0.01004321537672774 -0.014715328982745477 -0.04223067047649564 -0.04019784814201055 -0.0032548309669684816 24.046433067233824 0.03929866692959793 -0.002676533258020988 28.861659175436127 0.04673139214408376 -0.03208296775734194 28.869308882768205 -0.022656777111614037 -0.006737324474008386 3.882881614516483 1.1153044318124565 13.758681626207185 -70.91670594956284 36.19303698617864 -4.532890064115794 -3.5603105742375813 -5.3520755230635 -97.76492711092948 -12.897954331867952 -4.585770716249456 1.3089354828406023 -0.5213050926571824 0.07059380223029635 -8.092881676444225 0.026146300150652592 -0.014003524140313556 44.585531145801546 -0.008526926367043742 0.0367535747468642 44.53858102484213 12.429208783233763 -0.026555933488049015 -0.037926198584366556 0.0006028052154664442 0.009292676732125027 0.04128561704102871 -0.0057094728786653655 -0.01379180368531257 -0.03311566503791073 11.155313793547577 -0.044331117765417136 0.04955876379489343 -0.0004013713791026823 -0.022023399759740107 0.03506961333019474 0.008490969784461297 0.045179640226343694 -0.006613861284316232 4.804606129979116 0.024041163463984876 -0.026751096544086004 -0.04512469390597335 -0.034074161339301794 -0.04968928713872584 -0.0471135878126122 0.02461947917928038 0.036245273857177095 -5.572113575751327 -0.012945087191456532 0.00166875599164343 -6.721264051953152 -0.012889610887545686 -0.014404848576483194 -6.68173548206629 0.025863440465945107 -0.02808136049873547 -0.016174021048331568 0.017922188514492326 0.04205962417229624 8.008834595278996 3.478529707103654 -19.235487539512416 -0.011462259003947485 10.386752275458289 0.05594982930471455 -5.6247394741019265 -15.623497062476119 3.143146361204715 0.016581159942979984 0.008583861966868458 -0.011319002805356257 -0.022895861374965652 4.73277157784576 -0.021374784254078856 12.426904219207742 -8.249258743370069 6.844703919853021 -0.007595772951214248 46.401652447502016 -0.03104000814419034 -4.318674813043759 -14.744631465119754 -3.8360873712127472 0.010069455595410578 0.01143672106744061 -0.00910972102131005 -0.007137246575755836 -10.761272206634846 -0.00800253288893359 
